<svg id="Layer_1" data-name="Layer 1" xmlns="http://www.w3.org/2000/svg" viewBox="0 0 1800 515"><defs><style>.cls-1{fill:#000702;}</style></defs><path class="cls-1" d="M686.3,257.51A171.42,171.42,0,0,1,514.89,428.92H257.77l-20.24-7.73L250,408.68,287.94,396l68-74.23H536.31a64.27,64.27,0,1,0,0-128.54H355.94l-68-74.22L250,106.32l-12.49-12.5,20.22-7.74H514.91A171.42,171.42,0,0,1,686.3,257.51Z"/><polygon class="cls-1" points="257.77 257.51 205.12 310.46 119.41 257.51 205.12 204.55 257.77 257.51"/><path d="M851.36,286.11v-9.22c0-67.91,23.66-88.18,78.66-88.18,28.26,0,47.31,9.52,58.68,28.88,0-31.34-.3-64.22-.61-76.82H1017c-.31,10.45-.31,23-.31,39.33V330.66c0,16.28,0,28.27.31,39.94h-25.5l-.62-29.8c-11.06,22.74-31,33.49-62.68,33.49C875,374.29,851.36,354,851.36,286.11ZM989,282.73v-2.46c0-53.47-13.83-66.06-53.16-66.06-42.7,0-56.22,12.9-56.22,65.75V283c0,52.85,13.52,65.76,54.69,65.76C975.18,348.79,989,335.88,989,282.73Z"/><path d="M1064.9,317.75C1064.9,276.89,1083,260,1134,260c27.66,0,47.32,6.45,59,17.51V256.3c0-32.26-10.76-42.09-49.47-42.09-36.57,0-43.63,7.07-43.63,30.11l-28-.92c-.62-36.57,18.12-54.69,71.59-54.69,61.76,0,77.43,19.66,77.43,61.75,0,24.28-.31,36-.31,61.76,0,18.44,0,34.11.31,58.38h-24.58l-.31-21.2c-11.06,15.36-31.65,24.89-62.07,24.89C1082.11,374.29,1064.9,357.7,1064.9,317.75Zm128.74.31v-9.52c0-15.68-10.75-24.89-50.7-24.89-41.17,0-49.47,9.52-49.47,34.1,0,24,12.29,31.65,49.47,31.65C1182.89,349.4,1193.64,339.88,1193.64,318.06Z"/><path d="M1282.74,217.28h-29.19V192.39h29.19c0-12.9,0-25.19-.31-34.41l28.27-.92c-.31,12.29-.31,20.89-.31,35.33H1358v24.89h-47.63V319.6c0,21.81,3.08,26.73,30.11,26.73,7.38,0,10.14-.31,17.52-.61l.31,24.88a120.84,120.84,0,0,1-19.36,1.23c-49.47,0-56.54-12.6-56.54-50.08,0-12.6.31-43.32.31-71Z"/><path d="M1405.94,217.28h-29.19V192.39h29.19c0-12.9,0-25.19-.3-34.41l28.26-.92c-.3,12.29-.3,20.89-.3,35.33h47.62v24.89H1433.6V319.6c0,21.81,3.07,26.73,30.11,26.73,7.37,0,10.14-.31,17.51-.61l.31,24.88a120.84,120.84,0,0,1-19.36,1.23c-49.47,0-56.53-12.6-56.53-50.08,0-12.6.3-43.32.3-71Z"/><path d="M1514.71,317.75c0-40.86,18.13-57.76,69.13-57.76,27.65,0,47.32,6.45,59,17.51V256.3c0-32.26-10.76-42.09-49.47-42.09-36.57,0-43.63,7.07-43.63,30.11l-28-.92c-.61-36.57,18.13-54.69,71.6-54.69,61.76,0,77.43,19.66,77.43,61.75,0,24.28-.31,36-.31,61.76,0,18.44,0,34.11.31,58.38h-24.59l-.3-21.2c-11.06,15.36-31.65,24.89-62.07,24.89C1531.91,374.29,1514.71,357.7,1514.71,317.75Zm128.74.31v-9.52c0-15.68-10.75-24.89-50.7-24.89-41.17,0-49.47,9.52-49.47,34.1,0,24,12.29,31.65,49.47,31.65C1632.7,349.4,1643.45,339.88,1643.45,318.06Z"/></svg>