<svg id="Layer_1" data-name="Layer 1" xmlns="http://www.w3.org/2000/svg" viewBox="0 0 1800 515"><defs><style>.cls-1{fill:#fafafa;}</style></defs><path class="cls-1" d="M685.35,257.51A171.41,171.41,0,0,1,513.94,428.92H256.83l-20.24-7.73,12.5-12.51L287,396l68-74.23H535.37a64.27,64.27,0,1,0,0-128.54H355L287,119l-37.91-12.69-12.5-12.5,20.22-7.74H514A171.41,171.41,0,0,1,685.35,257.51Z"/><polygon class="cls-1" points="256.83 257.51 204.17 310.46 118.47 257.51 204.17 204.55 256.83 257.51"/><path class="cls-1" d="M850.41,286.11v-9.22c0-67.91,23.66-88.18,78.66-88.18,28.27,0,47.32,9.52,58.69,28.88,0-31.34-.31-64.22-.62-76.82H1016c-.31,10.45-.31,23-.31,39.33V330.66c0,16.28,0,28.27.31,39.94H990.52l-.61-29.8c-11.06,22.74-31,33.49-62.68,33.49C874.07,374.29,850.41,354,850.41,286.11Zm137.66-3.38v-2.46c0-53.47-13.83-66.06-53.16-66.06-42.71,0-56.23,12.9-56.23,65.75V283c0,52.85,13.52,65.76,54.69,65.76C974.24,348.79,988.07,335.88,988.07,282.73Z"/><path class="cls-1" d="M1064,317.75c0-40.86,18.12-57.76,69.13-57.76,27.65,0,47.32,6.45,59,17.51V256.3c0-32.26-10.75-42.09-49.47-42.09-36.56,0-43.63,7.07-43.63,30.11l-28-.92c-.61-36.57,18.13-54.69,71.59-54.69,61.76,0,77.43,19.66,77.43,61.75,0,24.28-.3,36-.3,61.76,0,18.44,0,34.11.3,58.38h-24.58l-.3-21.2c-11.07,15.36-31.65,24.89-62.07,24.89C1081.16,374.29,1064,357.7,1064,317.75Zm128.74.31v-9.52c0-15.68-10.76-24.89-50.7-24.89-41.17,0-49.47,9.52-49.47,34.1,0,24,12.29,31.65,49.47,31.65C1181.94,349.4,1192.7,339.88,1192.7,318.06Z"/><path class="cls-1" d="M1281.79,217.28H1252.6V192.39h29.19c0-12.9,0-25.19-.3-34.41l28.26-.92c-.3,12.29-.3,20.89-.3,35.33h47.62v24.89h-47.62V319.6c0,21.81,3.07,26.73,30.11,26.73,7.37,0,10.14-.31,17.51-.61l.31,24.88a120.84,120.84,0,0,1-19.36,1.23c-49.47,0-56.53-12.6-56.53-50.08,0-12.6.3-43.32.3-71Z"/><path class="cls-1" d="M1405,217.28h-29.19V192.39H1405c0-12.9,0-25.19-.31-34.41l28.27-.92c-.31,12.29-.31,20.89-.31,35.33h47.63v24.89h-47.63V319.6c0,21.81,3.08,26.73,30.12,26.73,7.37,0,10.13-.31,17.51-.61l.31,24.88a120.84,120.84,0,0,1-19.36,1.23c-49.47,0-56.54-12.6-56.54-50.08,0-12.6.31-43.32.31-71Z"/><path class="cls-1" d="M1513.76,317.75c0-40.86,18.13-57.76,69.14-57.76,27.65,0,47.31,6.45,59,17.51V256.3c0-32.26-10.75-42.09-49.47-42.09-36.56,0-43.63,7.07-43.63,30.11l-28-.92c-.61-36.57,18.13-54.69,71.59-54.69,61.76,0,77.43,19.66,77.43,61.75,0,24.28-.31,36-.31,61.76,0,18.44,0,34.11.31,58.38h-24.58l-.31-21.2c-11.06,15.36-31.64,24.89-62.06,24.89C1531,374.29,1513.76,357.7,1513.76,317.75Zm128.74.31v-9.52c0-15.68-10.75-24.89-50.69-24.89-41.18,0-49.47,9.52-49.47,34.1,0,24,12.29,31.65,49.47,31.65C1631.75,349.4,1642.5,339.88,1642.5,318.06Z"/></svg>