<svg id="Layer_1" data-name="Layer 1" xmlns="http://www.w3.org/2000/svg" viewBox="0 0 2287 653"><path d="M871.35,326.73c0,120.3-97.51,217.79-217.79,217.79H326.88l-25.69-9.81,15.88-15.88,48.14-16.13,86.4-94.29H680.78a81.67,81.67,0,1,0,0-163.33H451.63l-86.44-94.31-48.14-16.11-15.9-15.9L326.86,109H653.61C773.86,109,871.35,206.48,871.35,326.73Z"/><polygon points="326.88 326.73 259.98 394.01 151.09 326.73 259.98 259.45 326.88 326.73"/><path d="M1089.23,259.3V252c0-54.16,18.87-70.33,62.73-70.33,22.55,0,37.74,7.6,46.81,23,0-25-.25-51.21-.49-61.26h23c-.24,8.33-.24,18.38-.24,31.37V294.84c0,13,0,22.54.24,31.85H1201l-.49-23.77c-8.82,18.14-24.75,26.71-50,26.71C1108.1,329.63,1089.23,313.46,1089.23,259.3ZM1199,256.61v-2c0-42.64-11-52.69-42.39-52.69-34.07,0-44.85,10.29-44.85,52.44v2.45c0,42.15,10.78,52.44,43.62,52.44C1188,309.29,1199,299,1199,256.61Z"/><path d="M1259.54,284.54c0-32.59,14.46-46.07,55.14-46.07,22,0,37.73,5.15,47,14V235.53c0-25.73-8.58-33.57-39.46-33.57-29.16,0-34.8,5.64-34.8,24l-22.3-.73c-.49-29.16,14.46-43.62,57.1-43.62,49.26,0,61.76,15.68,61.76,49.26,0,19.35-.25,28.67-.25,49.25,0,14.71,0,27.2.25,46.56h-19.61l-.24-16.91c-8.83,12.26-25.24,19.85-49.5,19.85C1273.26,329.63,1259.54,316.4,1259.54,284.54Zm102.68.25v-7.6c0-12.5-8.58-19.85-40.44-19.85-32.84,0-39.45,7.6-39.45,27.2,0,19.12,9.8,25.24,39.45,25.24C1353.64,309.78,1362.22,302.19,1362.22,284.79Z"/><path d="M1433.28,204.41H1410V184.56h23.28c0-10.29,0-20.09-.25-27.45l22.55-.73c-.25,9.8-.25,16.66-.25,28.18h38v19.85h-38V286c0,17.4,2.45,21.32,24,21.32,5.88,0,8.08-.24,14-.49l.24,19.85a95.64,95.64,0,0,1-15.44,1c-39.45,0-45.09-10-45.09-39.94,0-10.05.25-34.55.25-56.61Z"/><path d="M1531.54,204.41h-23.28V184.56h23.28c0-10.29,0-20.09-.25-27.45l22.55-.73c-.25,9.8-.25,16.66-.25,28.18h38v19.85h-38V286c0,17.4,2.45,21.32,24,21.32,5.88,0,8.09-.24,14-.49l.24,19.85a95.56,95.56,0,0,1-15.44,1c-39.45,0-45.09-10-45.09-39.94,0-10.05.25-34.55.25-56.61Z"/><path d="M1618.28,284.54c0-32.59,14.46-46.07,55.14-46.07,22.06,0,37.74,5.15,47,14V235.53c0-25.73-8.58-33.57-39.45-33.57-29.16,0-34.8,5.64-34.8,24l-22.3-.73c-.49-29.16,14.46-43.62,57.1-43.62,49.25,0,61.75,15.68,61.75,49.26,0,19.35-.24,28.67-.24,49.25,0,14.71,0,27.2.24,46.56h-19.6l-.25-16.91c-8.82,12.26-25.24,19.85-49.5,19.85C1632,329.63,1618.28,316.4,1618.28,284.54Zm102.68.25v-7.6c0-12.5-8.57-19.85-40.43-19.85-32.84,0-39.46,7.6-39.46,27.2,0,19.12,9.81,25.24,39.46,25.24C1712.39,309.78,1721,302.19,1721,284.79Z"/><path d="M1089.11,453.45v-4.71c0-34.19,10.82-44.69,38-44.69,26.51,0,36.23,9.56,36.23,37.16l-6.12.16c0-23.52-7.52-31.05-30.11-31.05s-31.21,8.15-31.21,38.42v4.71c0,30.27,8.63,38.42,31.21,38.42s30.43-8.78,30.43-31.05l6.11.16c0,27-10,37.16-36.54,37.16C1099.93,498.14,1089.11,487.64,1089.11,453.45Z"/><path d="M1182.74,453.45v-4.71c0-34.19,10.35-44.69,38.42-44.69s38.42,10.5,38.42,44.69v4.71c0,34.19-10.35,44.69-38.42,44.69S1182.74,487.64,1182.74,453.45Zm70.1,0v-4.71c0-30.27-8-38.42-31.68-38.42s-31.68,8.15-31.68,38.42v4.71c0,30.27,8,38.42,31.68,38.42S1252.84,483.72,1252.84,453.45Z"/><path d="M1286.09,425.22c0-7.53,0-12.86-.16-19.29h5.49l.16,16.78c4.55-14,14.27-18.66,31.05-18.66,23.84,0,32.93,8.93,32.93,33.56,0,6.43-.15,10-.15,24.15V476c0,6.59,0,12.86.15,20.23H1349c.15-6.27.15-11.45.15-20.23V437.61c0-20.08-7.68-27.29-26.5-27.29-22.11,0-30.27,7.21-30.27,40.93V476c0,8.78,0,12.7.16,20.23h-6.59c.16-6.58.16-12.54.16-20.23Z"/><path d="M1391.16,411.73h-19.6v-5.8h19.6c0-5,0-10-.15-16.63l6.59-.31c-.16,3.45-.16,9.41-.16,16.94h30.74v5.8h-30.74V471.8c0,14.74,3.76,18.82,17.88,18.82,5.64,0,8.94,0,12.86-.32l.15,6a89.62,89.62,0,0,1-13,.63c-19.14,0-24.31-6.12-24.31-25.25,0-6.43.15-36.54.15-50.66Z"/><path d="M1447.47,469.29c0-21,8.62-28.86,34-28.86,15.84,0,24.47,4.23,29,11.92V436c0-17.25-5-25.72-28.38-25.72-20.86,0-26,5.8-25.72,21.33l-6.12-.32c-.31-19.6,7.69-27.28,31.84-27.28,29.33,0,34.81,11.29,34.81,32,0,12.39-.15,16.31-.15,30.42,0,9.41,0,17.41.15,29.8h-5.48l-.16-12.86c-4.39,9.88-13,14.74-29.8,14.74C1456.56,498.14,1447.47,490.3,1447.47,469.29Zm63.36-1.26v-.62c0-15.22-9.73-20.71-29.33-20.71-20.23,0-27.29,5.49-27.29,22.59s7.06,22.58,27.29,22.58C1501.1,491.87,1510.83,486.38,1510.83,468Z"/><path d="M1551,399c0-8.31,0-14.74-.16-20.08h6.74c-.15,6.59-.15,28.7-.15,41.09,4.86-11.29,14.27-16,30.74-16,28.07,0,37.95,10.5,37.95,44.69v4.71c0,34.19-9.88,44.69-38.74,44.69-16.94,0-26.35-5.33-30.89-18.19l-.16,16.31h-5.49c.16-6,.16-12.07.16-20.39Zm36.38,92.84c24.47,0,32-8.15,32-38.42v-4.71c0-30.27-7.52-38.42-31.2-38.42-22.12,0-30.9,8.15-30.9,39.05v3.45C1557.25,483.72,1566,491.87,1587.36,491.87Z"/><path d="M1659.35,384.91v9.88h-6.59v-9.88Zm-6.43,45.64c0-10.35,0-18.35-.16-24.62h6.59c-.16,6.27-.16,14.27-.16,24.62v45.32c0,8.16,0,14.43.16,20.39h-6.59c.16-6,.16-12.07.16-20.39Z"/><path d="M1694,403.58c0-10.36,0-18.35-.16-24.63h6.59c-.16,6.28-.16,14.27-.16,24.63v72.29c0,8.16,0,14.43.16,20.39h-6.59c.16-6,.16-12.07.16-20.39Z"/><path d="M1741.53,384.91v9.88h-6.59v-9.88Zm-6.43,45.64c0-10.35,0-18.35-.16-24.62h6.59c-.16,6.27-.16,14.27-.16,24.62v45.32c0,8.16,0,14.43.16,20.39h-6.59c.16-6,.16-12.07.16-20.39Z"/><path d="M1768.19,453.29v-4.7c0-34.35,9.88-44.54,38.73-44.54,15.84,0,25.1,4.54,30,15.68,0-16-.16-34.66-.31-40.78h6.9c-.16,5.34-.16,11.92-.16,20.23v77c0,8.15,0,14.11.16,20.07H1838l-.16-16.46c-4.55,13-14.11,18.34-31.68,18.34C1778.07,498.14,1768.19,487.64,1768.19,453.29Zm68.85-.63v-3.45c0-31-8.79-38.89-30.12-38.89-24.46,0-32,7.84-32,38.27v4.7c0,30.43,7.53,38.58,31.21,38.58C1828.25,491.87,1837,483.72,1837,452.66Z"/><path d="M1874.21,469.29c0-21,8.62-28.86,34-28.86,15.84,0,24.46,4.23,29,11.92V436c0-17.25-5-25.72-28.38-25.72-20.86,0-26,5.8-25.72,21.33l-6.12-.32c-.31-19.6,7.68-27.28,31.84-27.28,29.32,0,34.81,11.29,34.81,32,0,12.39-.16,16.31-.16,30.42,0,9.41,0,17.41.16,29.8h-5.49L1938,483.4c-4.4,9.88-13,14.74-29.8,14.74C1883.3,498.14,1874.21,490.3,1874.21,469.29Zm63.36-1.26v-.62c0-15.22-9.73-20.71-29.33-20.71-20.23,0-27.29,5.49-27.29,22.59s7.06,22.58,27.29,22.58C1927.84,491.87,1937.57,486.38,1937.57,468Z"/><path d="M1969.72,453.29v-4.7c0-34.35,9.88-44.54,38.73-44.54,15.84,0,25.1,4.54,30,15.68,0-16-.16-34.66-.31-40.78h6.9c-.16,5.34-.16,11.92-.16,20.23v77c0,8.15,0,14.11.16,20.07h-5.49l-.16-16.46c-4.55,13-14.12,18.34-31.68,18.34C1979.6,498.14,1969.72,487.64,1969.72,453.29Zm68.85-.63v-3.45c0-31-8.79-38.89-30.12-38.89-24.46,0-32,7.84-32,38.27v4.7c0,30.43,7.53,38.58,31.21,38.58C2029.78,491.87,2038.57,483.72,2038.57,452.66Z"/><path d="M2071.66,453.29v-4.7c0-34.35,10.82-44.54,38.26-44.54s36.23,10.19,36.55,44.54v2.82H2078.4v1.88c0,30.43,8.63,38.58,31.68,38.58s30.27-8.15,30.27-28.86l6.12.32c0,25.25-9.26,34.81-36.39,34.81C2082.48,498.14,2071.66,487.64,2071.66,453.29Zm6.74-8h61.17c-.32-28.38-8.47-35-29.65-35C2088,410.32,2079,417.53,2078.4,445.29Z"/></svg>