<svg id="Layer_1" data-name="Layer 1" xmlns="http://www.w3.org/2000/svg" viewBox="0 0 1636 1500"><defs><style>.cls-1{fill:#fafafa;}</style></defs><path class="cls-1" d="M406.57,1006.52v-9.21c0-67.82,23.62-88.07,78.56-88.07,28.23,0,47.25,9.51,58.61,28.85,0-31.31-.31-64.14-.61-76.72H572c-.31,10.43-.31,23-.31,39.28V1051c0,16.26,0,28.23.31,39.89H546.5l-.61-29.77c-11,22.71-31,33.45-62.61,33.45C430.19,1094.59,406.57,1074.34,406.57,1006.52Zm137.48-3.38v-2.45c0-53.4-13.81-66-53.09-66-42.66,0-56.16,12.89-56.16,65.67v3.07c0,52.78,13.5,65.67,54.62,65.67C530.24,1069.12,544.05,1056.23,544.05,1003.14Z"/><path class="cls-1" d="M619.84,1038.13c0-40.82,18.11-57.7,69-57.7,27.62,0,47.26,6.45,58.92,17.49V976.75c0-32.22-10.74-42-49.41-42-36.52,0-43.58,7.06-43.58,30.07l-27.92-.92c-.62-36.52,18.1-54.62,71.5-54.62,61.68,0,77.33,19.64,77.33,61.68,0,24.24-.3,35.9-.3,61.68,0,18.42,0,34.07.3,58.31H751.18l-.3-21.18c-11,15.35-31.61,24.86-62,24.86C637,1094.59,619.84,1078,619.84,1038.13Zm128.58.3v-9.51c0-15.65-10.74-24.86-50.63-24.86-41.13,0-49.41,9.52-49.41,34.07,0,23.93,12.27,31.6,49.41,31.6C737.68,1069.73,748.42,1060.22,748.42,1038.43Z"/><path class="cls-1" d="M837.41,937.78H808.25V912.92h29.16c0-12.89,0-25.16-.31-34.37l28.23-.92c-.3,12.28-.3,20.87-.3,35.29h47.56v24.86H865V1040c0,21.79,3.07,26.7,30.07,26.7,7.37,0,10.13-.31,17.49-.62l.31,24.86a120.45,120.45,0,0,1-19.33,1.23c-49.41,0-56.47-12.58-56.47-50,0-12.59.31-43.27.31-70.89Z"/><path class="cls-1" d="M960.46,937.78H931.31V912.92h29.15c0-12.89,0-25.16-.31-34.37l28.23-.92c-.3,12.28-.3,20.87-.3,35.29h47.56v24.86H988.08V1040c0,21.79,3.07,26.7,30.07,26.7,7.37,0,10.13-.31,17.49-.62l.31,24.86a120.45,120.45,0,0,1-19.33,1.23c-49.41,0-56.47-12.58-56.47-50,0-12.59.31-43.27.31-70.89Z"/><path class="cls-1" d="M1069.09,1038.13c0-40.82,18.1-57.7,69-57.7,27.62,0,47.26,6.45,58.92,17.49V976.75c0-32.22-10.74-42-49.4-42-36.52,0-43.58,7.06-43.58,30.07l-27.93-.92c-.61-36.52,18.11-54.62,71.51-54.62,61.68,0,77.33,19.64,77.33,61.68,0,24.24-.31,35.9-.31,61.68,0,18.42,0,34.07.31,58.31h-24.55l-.31-21.18c-11,15.35-31.6,24.86-62,24.86C1086.27,1094.59,1069.09,1078,1069.09,1038.13Zm128.58.3v-9.51c0-15.65-10.74-24.86-50.64-24.86-41.12,0-49.4,9.52-49.4,34.07,0,23.93,12.27,31.6,49.4,31.6C1186.93,1069.73,1197.67,1060.22,1197.67,1038.43Z"/><path class="cls-1" d="M153.72,1249.64v-5.89c0-42.81,13.56-56,47.53-56,33.19,0,45.37,12,45.37,46.54l-7.66.2c0-29.46-9.43-38.89-37.71-38.89s-39.08,10.22-39.08,48.12v5.89c0,37.9,10.8,48.12,39.08,48.12s38.1-11,38.1-38.89l7.66.2c0,33.78-12.57,46.54-45.76,46.54C167.28,1305.61,153.72,1292.46,153.72,1249.64Z"/><path class="cls-1" d="M271,1249.64v-5.89c0-42.81,13-56,48.12-56s48.12,13.16,48.12,56v5.89c0,42.82-13,56-48.12,56S271,1292.46,271,1249.64Zm87.79,0v-5.89c0-37.9-10-48.12-39.67-48.12s-39.67,10.22-39.67,48.12v5.89c0,37.9,10,48.12,39.67,48.12S358.76,1287.54,358.76,1249.64Z"/><path class="cls-1" d="M400.4,1214.29c0-9.43,0-16.1-.2-24.16h6.87l.2,21c5.7-17.48,17.87-23.37,38.88-23.37,29.86,0,41.25,11.19,41.25,42,0,8-.2,12.56-.2,30.24v17.87c0,8.25,0,16.11.2,25.34h-8.25c.2-7.86.2-14.34.2-25.34v-48.11c0-25.14-9.63-34.18-33.2-34.18-27.69,0-37.9,9-37.9,51.26v31c0,11,0,15.91.2,25.34H400.2c.2-8.25.2-15.72.2-25.34Z"/><path class="cls-1" d="M532,1197.4H507.43v-7.27H532c0-6.28,0-12.57-.2-20.81l8.25-.4c-.19,4.32-.19,11.79-.19,21.21h38.49v7.27H539.84v75.22c0,18.46,4.71,23.57,22.38,23.57,7.07,0,11.2,0,16.11-.4l.2,7.47a112.61,112.61,0,0,1-16.31.78c-24,0-30.44-7.66-30.44-31.62,0-8.05.2-45.76.2-63.43Z"/><path class="cls-1" d="M602.49,1269.48c0-26.32,10.8-36.14,42.61-36.14,19.84,0,30.64,5.3,36.34,14.93v-20.43c0-21.6-6.29-32.21-35.55-32.21-26.12,0-32.6,7.27-32.21,26.71L606,1222c-.39-24.55,9.62-34.17,39.87-34.17,36.73,0,43.6,14.14,43.6,40.06,0,15.52-.2,20.43-.2,38.1,0,11.79,0,21.8.2,37.32h-6.87l-.2-16.11c-5.5,12.37-16.3,18.46-37.32,18.46C613.88,1305.61,602.49,1295.79,602.49,1269.48Zm79.34-1.57v-.79c0-19-12.18-25.92-36.73-25.92-25.33,0-34.17,6.87-34.17,28.28s8.84,28.28,34.17,28.28C669.65,1297.76,681.83,1290.88,681.83,1267.91Z"/><path class="cls-1" d="M732.11,1181.49c0-10.41,0-18.46-.2-25.13h8.45c-.2,8.24-.2,35.93-.2,51.45,6.09-14.14,17.87-20,38.49-20,35.16,0,47.53,13.16,47.53,56v5.89c0,42.82-12.37,56-48.51,56-21.21,0-33-6.68-38.69-22.78l-.2,20.43h-6.87c.2-7.47.2-15.13.2-25.53Zm45.56,116.27c30.64,0,40.06-10.22,40.06-48.12v-5.89c0-37.9-9.42-48.12-39.08-48.12-27.69,0-38.69,10.22-38.69,48.91v4.31C740,1287.54,751,1297.76,777.67,1297.76Z"/><path class="cls-1" d="M867.82,1163.82v12.37h-8.25v-12.37ZM859.77,1221c0-13,0-23-.2-30.84h8.25c-.2,7.86-.2,17.88-.2,30.84v56.76c0,10.21,0,18.06.2,25.53h-8.25c.2-7.47.2-15.13.2-25.53Z"/><path class="cls-1" d="M911.22,1187.19c0-13,0-23-.2-30.83h8.25c-.19,7.85-.19,17.87-.19,30.83v90.54c0,10.21,0,18.06.19,25.53H911c.2-7.47.2-15.13.2-25.53Z"/><path class="cls-1" d="M970.73,1163.82v12.37h-8.25v-12.37ZM962.68,1221c0-13,0-23-.2-30.84h8.25c-.2,7.86-.2,17.88-.2,30.84v56.76c0,10.21,0,18.06.2,25.53h-8.25c.2-7.47.2-15.13.2-25.53Z"/><path class="cls-1" d="M1004.11,1249.44v-5.89c0-43,12.38-55.77,48.51-55.77,19.84,0,31.43,5.69,37.51,19.64,0-20-.19-43.41-.39-51.06h8.64c-.19,6.67-.19,14.92-.19,25.33v96.43c0,10.21,0,17.67.19,25.14h-6.87l-.2-20.62c-5.69,16.29-17.67,23-39.67,23C1016.49,1305.61,1004.11,1292.46,1004.11,1249.44Zm86.22-.78v-4.32c0-38.89-11-48.71-37.71-48.71-30.63,0-40.06,9.82-40.06,47.92v5.89c0,38.1,9.43,48.32,39.08,48.32C1079.33,1297.76,1090.33,1287.54,1090.33,1248.66Z"/><path class="cls-1" d="M1136.88,1269.48c0-26.32,10.8-36.14,42.62-36.14,19.83,0,30.63,5.3,36.33,14.93v-20.43c0-21.6-6.29-32.21-35.55-32.21-26.12,0-32.6,7.27-32.21,26.71l-7.66-.39c-.39-24.55,9.63-34.17,39.87-34.17,36.73,0,43.6,14.14,43.6,40.06,0,15.52-.2,20.43-.2,38.1,0,11.79,0,21.8.2,37.32H1217l-.2-16.11c-5.5,12.37-16.3,18.46-37.31,18.46C1148.27,1305.61,1136.88,1295.79,1136.88,1269.48Zm79.34-1.57v-.79c0-19-12.18-25.92-36.72-25.92-25.34,0-34.18,6.87-34.18,28.28s8.84,28.28,34.18,28.28C1204,1297.76,1216.22,1290.88,1216.22,1267.91Z"/><path class="cls-1" d="M1256.48,1249.44v-5.89c0-43,12.38-55.77,48.51-55.77,19.84,0,31.43,5.69,37.51,19.64,0-20-.19-43.41-.39-51.06h8.64c-.19,6.67-.19,14.92-.19,25.33v96.43c0,10.21,0,17.67.19,25.14h-6.87l-.2-20.62c-5.69,16.29-17.67,23-39.67,23C1268.86,1305.61,1256.48,1292.46,1256.48,1249.44Zm86.22-.78v-4.32c0-38.89-11-48.71-37.71-48.71-30.63,0-40.06,9.82-40.06,47.92v5.89c0,38.1,9.43,48.32,39.08,48.32C1331.7,1297.76,1342.7,1287.54,1342.7,1248.66Z"/><path class="cls-1" d="M1384.14,1249.44v-5.89c0-43,13.55-55.77,47.92-55.77s45.37,12.76,45.76,55.77v3.54h-85.23v2.35c0,38.1,10.8,48.32,39.67,48.32s37.9-10.22,37.9-36.14l7.66.39c0,31.62-11.59,43.6-45.56,43.6C1397.69,1305.61,1384.14,1292.46,1384.14,1249.44Zm8.45-10h76.59c-.39-35.55-10.61-43.8-37.12-43.8C1404.57,1195.63,1393.37,1204.67,1392.59,1239.43Z"/><path class="cls-1" d="M1227.29,409.13c0,150.67-122.13,272.77-272.77,272.77H545.37l-32.18-12.29,19.88-19.89,60.3-20.2,108.21-118.1h287a102.28,102.28,0,1,0,0-204.56h-287L593.34,188.74l-60.29-20.18-19.91-19.91,32.2-12.29H954.57C1105.19,136.39,1227.29,258.51,1227.29,409.13Z"/><polygon class="cls-1" points="545.37 409.13 461.58 493.4 325.19 409.13 461.58 324.86 545.37 409.13"/></svg>